<mxfile host="Electron" modified="2023-12-14T18:49:21.491Z" agent="Mozilla/5.0 (Windows NT 10.0; Win64; x64) AppleWebKit/537.36 (KHTML, like Gecko) draw.io/21.8.2 Chrome/114.0.5735.289 Electron/25.8.1 Safari/537.36" etag="gQ2uLCqyuLzyczka6NIA" version="21.8.2" type="device">
  <diagram name="Страница — 1" id="W8e5gA1945cSQV0SCUuT">
    <mxGraphModel dx="1605" dy="772" grid="1" gridSize="10" guides="1" tooltips="1" connect="1" arrows="1" fold="1" page="1" pageScale="1" pageWidth="827" pageHeight="1169" math="0" shadow="0">
      <root>
        <mxCell id="0" />
        <mxCell id="1" parent="0" />
        <mxCell id="lZwE5tW1TfOiqQzU_jRC-4" value="" style="edgeStyle=orthogonalEdgeStyle;rounded=0;orthogonalLoop=1;jettySize=auto;html=1;entryX=0.5;entryY=0;entryDx=0;entryDy=0;" parent="1" source="lZwE5tW1TfOiqQzU_jRC-2" target="DDxuR43p7MorcLA8TKOA-1" edge="1">
          <mxGeometry relative="1" as="geometry" />
        </mxCell>
        <mxCell id="lZwE5tW1TfOiqQzU_jRC-2" value="Start" style="rounded=1;whiteSpace=wrap;html=1;" parent="1" vertex="1">
          <mxGeometry x="50" y="20" width="120" height="60" as="geometry" />
        </mxCell>
        <mxCell id="lZwE5tW1TfOiqQzU_jRC-6" value="" style="edgeStyle=orthogonalEdgeStyle;rounded=0;orthogonalLoop=1;jettySize=auto;html=1;exitX=0.5;exitY=0.813;exitDx=0;exitDy=0;exitPerimeter=0;entryX=0.5;entryY=0;entryDx=0;entryDy=0;" parent="1" source="DDxuR43p7MorcLA8TKOA-4" target="DDxuR43p7MorcLA8TKOA-5" edge="1">
          <mxGeometry relative="1" as="geometry">
            <mxPoint x="110" y="350" as="sourcePoint" />
            <mxPoint x="290" y="270" as="targetPoint" />
          </mxGeometry>
        </mxCell>
        <mxCell id="lZwE5tW1TfOiqQzU_jRC-8" style="edgeStyle=orthogonalEdgeStyle;rounded=0;orthogonalLoop=1;jettySize=auto;html=1;exitX=0.5;exitY=1;exitDx=0;exitDy=0;entryX=0.5;entryY=0;entryDx=0;entryDy=0;" parent="1" source="lZwE5tW1TfOiqQzU_jRC-5" target="lZwE5tW1TfOiqQzU_jRC-7" edge="1">
          <mxGeometry relative="1" as="geometry" />
        </mxCell>
        <mxCell id="lZwE5tW1TfOiqQzU_jRC-9" value="Yes" style="edgeLabel;html=1;align=center;verticalAlign=middle;resizable=0;points=[];" parent="lZwE5tW1TfOiqQzU_jRC-8" vertex="1" connectable="0">
          <mxGeometry x="-0.1429" relative="1" as="geometry">
            <mxPoint y="-2" as="offset" />
          </mxGeometry>
        </mxCell>
        <mxCell id="lZwE5tW1TfOiqQzU_jRC-31" style="edgeStyle=orthogonalEdgeStyle;rounded=0;orthogonalLoop=1;jettySize=auto;html=1;exitX=1;exitY=0.5;exitDx=0;exitDy=0;entryX=0.5;entryY=0;entryDx=0;entryDy=0;" parent="1" source="lZwE5tW1TfOiqQzU_jRC-5" target="DDxuR43p7MorcLA8TKOA-23" edge="1">
          <mxGeometry relative="1" as="geometry">
            <Array as="points">
              <mxPoint x="310" y="420" />
              <mxPoint x="310" y="790" />
              <mxPoint x="110" y="790" />
            </Array>
            <mxPoint x="100" y="820" as="targetPoint" />
          </mxGeometry>
        </mxCell>
        <mxCell id="DDxuR43p7MorcLA8TKOA-34" value="No" style="edgeLabel;html=1;align=center;verticalAlign=middle;resizable=0;points=[];" vertex="1" connectable="0" parent="lZwE5tW1TfOiqQzU_jRC-31">
          <mxGeometry x="-0.2865" y="-3" relative="1" as="geometry">
            <mxPoint as="offset" />
          </mxGeometry>
        </mxCell>
        <mxCell id="lZwE5tW1TfOiqQzU_jRC-5" value="index&amp;lt;startSize" style="rhombus;whiteSpace=wrap;html=1;" parent="1" vertex="1">
          <mxGeometry x="30" y="380" width="160" height="80" as="geometry" />
        </mxCell>
        <mxCell id="lZwE5tW1TfOiqQzU_jRC-13" style="edgeStyle=orthogonalEdgeStyle;rounded=0;orthogonalLoop=1;jettySize=auto;html=1;exitX=1;exitY=0.5;exitDx=0;exitDy=0;entryX=1;entryY=0.5;entryDx=0;entryDy=0;" parent="1" source="lZwE5tW1TfOiqQzU_jRC-7" target="lZwE5tW1TfOiqQzU_jRC-21" edge="1">
          <mxGeometry relative="1" as="geometry">
            <mxPoint x="230" y="539" as="targetPoint" />
          </mxGeometry>
        </mxCell>
        <mxCell id="lZwE5tW1TfOiqQzU_jRC-14" value="No" style="edgeLabel;html=1;align=center;verticalAlign=middle;resizable=0;points=[];" parent="lZwE5tW1TfOiqQzU_jRC-13" vertex="1" connectable="0">
          <mxGeometry x="-0.2" relative="1" as="geometry">
            <mxPoint as="offset" />
          </mxGeometry>
        </mxCell>
        <mxCell id="lZwE5tW1TfOiqQzU_jRC-16" style="edgeStyle=orthogonalEdgeStyle;rounded=0;orthogonalLoop=1;jettySize=auto;html=1;exitX=0.5;exitY=1;exitDx=0;exitDy=0;entryX=0.5;entryY=0;entryDx=0;entryDy=0;" parent="1" source="lZwE5tW1TfOiqQzU_jRC-7" target="lZwE5tW1TfOiqQzU_jRC-15" edge="1">
          <mxGeometry relative="1" as="geometry" />
        </mxCell>
        <mxCell id="lZwE5tW1TfOiqQzU_jRC-17" value="Yes" style="edgeLabel;html=1;align=center;verticalAlign=middle;resizable=0;points=[];" parent="lZwE5tW1TfOiqQzU_jRC-16" vertex="1" connectable="0">
          <mxGeometry x="-0.0732" y="-3" relative="1" as="geometry">
            <mxPoint x="2" as="offset" />
          </mxGeometry>
        </mxCell>
        <mxCell id="lZwE5tW1TfOiqQzU_jRC-7" value="startArray[index]&amp;lt;4" style="rhombus;whiteSpace=wrap;html=1;" parent="1" vertex="1">
          <mxGeometry x="30" y="499" width="160" height="80" as="geometry" />
        </mxCell>
        <mxCell id="lZwE5tW1TfOiqQzU_jRC-22" value="" style="edgeStyle=orthogonalEdgeStyle;rounded=0;orthogonalLoop=1;jettySize=auto;html=1;" parent="1" source="lZwE5tW1TfOiqQzU_jRC-15" target="lZwE5tW1TfOiqQzU_jRC-21" edge="1">
          <mxGeometry relative="1" as="geometry" />
        </mxCell>
        <mxCell id="lZwE5tW1TfOiqQzU_jRC-15" value="endSize=endSize+1" style="rounded=0;whiteSpace=wrap;html=1;" parent="1" vertex="1">
          <mxGeometry x="30" y="620" width="160" height="60" as="geometry" />
        </mxCell>
        <mxCell id="lZwE5tW1TfOiqQzU_jRC-26" style="edgeStyle=orthogonalEdgeStyle;rounded=0;orthogonalLoop=1;jettySize=auto;html=1;exitX=0;exitY=0.5;exitDx=0;exitDy=0;entryX=0;entryY=0.5;entryDx=0;entryDy=0;" parent="1" source="lZwE5tW1TfOiqQzU_jRC-21" target="lZwE5tW1TfOiqQzU_jRC-5" edge="1">
          <mxGeometry relative="1" as="geometry">
            <Array as="points">
              <mxPoint y="740" />
              <mxPoint y="420" />
            </Array>
          </mxGeometry>
        </mxCell>
        <mxCell id="lZwE5tW1TfOiqQzU_jRC-21" value="index=index+1" style="rounded=0;whiteSpace=wrap;html=1;" parent="1" vertex="1">
          <mxGeometry x="50" y="710" width="120" height="60" as="geometry" />
        </mxCell>
        <mxCell id="lZwE5tW1TfOiqQzU_jRC-30" value="" style="edgeStyle=orthogonalEdgeStyle;rounded=0;orthogonalLoop=1;jettySize=auto;html=1;" parent="1" source="lZwE5tW1TfOiqQzU_jRC-27" target="lZwE5tW1TfOiqQzU_jRC-28" edge="1">
          <mxGeometry relative="1" as="geometry" />
        </mxCell>
        <mxCell id="lZwE5tW1TfOiqQzU_jRC-27" value="print(endArray[])" style="shape=document;whiteSpace=wrap;html=1;boundedLbl=1;" parent="1" vertex="1">
          <mxGeometry x="50" y="1530" width="120" height="80" as="geometry" />
        </mxCell>
        <mxCell id="lZwE5tW1TfOiqQzU_jRC-28" value="End" style="rounded=1;whiteSpace=wrap;html=1;" parent="1" vertex="1">
          <mxGeometry x="50" y="1650" width="120" height="60" as="geometry" />
        </mxCell>
        <mxCell id="DDxuR43p7MorcLA8TKOA-3" style="edgeStyle=orthogonalEdgeStyle;rounded=0;orthogonalLoop=1;jettySize=auto;html=1;exitX=0.5;exitY=1;exitDx=0;exitDy=0;entryX=0.5;entryY=0;entryDx=0;entryDy=0;" edge="1" parent="1" source="DDxuR43p7MorcLA8TKOA-1" target="DDxuR43p7MorcLA8TKOA-4">
          <mxGeometry relative="1" as="geometry">
            <mxPoint x="110" y="240" as="targetPoint" />
          </mxGeometry>
        </mxCell>
        <mxCell id="DDxuR43p7MorcLA8TKOA-1" value="startArray[ ],&lt;br&gt;startSize" style="shape=parallelogram;perimeter=parallelogramPerimeter;whiteSpace=wrap;html=1;fixedSize=1;" vertex="1" parent="1">
          <mxGeometry x="50" y="100" width="120" height="60" as="geometry" />
        </mxCell>
        <mxCell id="DDxuR43p7MorcLA8TKOA-4" value="print(startArray[])" style="shape=document;whiteSpace=wrap;html=1;boundedLbl=1;" vertex="1" parent="1">
          <mxGeometry x="50" y="180" width="120" height="80" as="geometry" />
        </mxCell>
        <mxCell id="DDxuR43p7MorcLA8TKOA-6" style="edgeStyle=orthogonalEdgeStyle;rounded=0;orthogonalLoop=1;jettySize=auto;html=1;exitX=0.5;exitY=1;exitDx=0;exitDy=0;entryX=0.5;entryY=0;entryDx=0;entryDy=0;" edge="1" parent="1" source="DDxuR43p7MorcLA8TKOA-5" target="lZwE5tW1TfOiqQzU_jRC-5">
          <mxGeometry relative="1" as="geometry" />
        </mxCell>
        <mxCell id="DDxuR43p7MorcLA8TKOA-5" value="index=0,&lt;br&gt;endSize=0" style="rounded=0;whiteSpace=wrap;html=1;" vertex="1" parent="1">
          <mxGeometry x="30" y="290" width="160" height="60" as="geometry" />
        </mxCell>
        <mxCell id="DDxuR43p7MorcLA8TKOA-8" style="edgeStyle=orthogonalEdgeStyle;rounded=0;orthogonalLoop=1;jettySize=auto;html=1;exitX=0.5;exitY=1;exitDx=0;exitDy=0;entryX=0.5;entryY=0;entryDx=0;entryDy=0;" edge="1" parent="1" source="DDxuR43p7MorcLA8TKOA-11" target="DDxuR43p7MorcLA8TKOA-16">
          <mxGeometry relative="1" as="geometry" />
        </mxCell>
        <mxCell id="DDxuR43p7MorcLA8TKOA-9" value="Yes" style="edgeLabel;html=1;align=center;verticalAlign=middle;resizable=0;points=[];" vertex="1" connectable="0" parent="DDxuR43p7MorcLA8TKOA-8">
          <mxGeometry x="-0.1429" relative="1" as="geometry">
            <mxPoint y="-2" as="offset" />
          </mxGeometry>
        </mxCell>
        <mxCell id="DDxuR43p7MorcLA8TKOA-10" style="edgeStyle=orthogonalEdgeStyle;rounded=0;orthogonalLoop=1;jettySize=auto;html=1;exitX=1;exitY=0.5;exitDx=0;exitDy=0;entryX=0.5;entryY=0;entryDx=0;entryDy=0;" edge="1" parent="1" source="DDxuR43p7MorcLA8TKOA-11" target="lZwE5tW1TfOiqQzU_jRC-27">
          <mxGeometry relative="1" as="geometry">
            <Array as="points">
              <mxPoint x="310" y="1100" />
              <mxPoint x="310" y="1470" />
              <mxPoint x="110" y="1470" />
            </Array>
            <mxPoint x="100" y="1500" as="targetPoint" />
          </mxGeometry>
        </mxCell>
        <mxCell id="DDxuR43p7MorcLA8TKOA-35" value="No" style="edgeLabel;html=1;align=center;verticalAlign=middle;resizable=0;points=[];" vertex="1" connectable="0" parent="DDxuR43p7MorcLA8TKOA-10">
          <mxGeometry x="-0.2411" y="2" relative="1" as="geometry">
            <mxPoint as="offset" />
          </mxGeometry>
        </mxCell>
        <mxCell id="DDxuR43p7MorcLA8TKOA-11" value="index&amp;lt;startSize" style="rhombus;whiteSpace=wrap;html=1;" vertex="1" parent="1">
          <mxGeometry x="30" y="1060" width="160" height="80" as="geometry" />
        </mxCell>
        <mxCell id="DDxuR43p7MorcLA8TKOA-12" style="edgeStyle=orthogonalEdgeStyle;rounded=0;orthogonalLoop=1;jettySize=auto;html=1;exitX=1;exitY=0.5;exitDx=0;exitDy=0;entryX=1;entryY=0.5;entryDx=0;entryDy=0;" edge="1" parent="1" source="DDxuR43p7MorcLA8TKOA-16" target="DDxuR43p7MorcLA8TKOA-20">
          <mxGeometry relative="1" as="geometry">
            <mxPoint x="230" y="1219" as="targetPoint" />
            <Array as="points">
              <mxPoint x="280" y="1219" />
              <mxPoint x="280" y="1420" />
            </Array>
          </mxGeometry>
        </mxCell>
        <mxCell id="DDxuR43p7MorcLA8TKOA-13" value="No" style="edgeLabel;html=1;align=center;verticalAlign=middle;resizable=0;points=[];" vertex="1" connectable="0" parent="DDxuR43p7MorcLA8TKOA-12">
          <mxGeometry x="-0.2" relative="1" as="geometry">
            <mxPoint x="-40" y="-62" as="offset" />
          </mxGeometry>
        </mxCell>
        <mxCell id="DDxuR43p7MorcLA8TKOA-14" style="edgeStyle=orthogonalEdgeStyle;rounded=0;orthogonalLoop=1;jettySize=auto;html=1;exitX=0.5;exitY=1;exitDx=0;exitDy=0;entryX=0.379;entryY=-0.033;entryDx=0;entryDy=0;entryPerimeter=0;" edge="1" parent="1" source="DDxuR43p7MorcLA8TKOA-16" target="DDxuR43p7MorcLA8TKOA-18">
          <mxGeometry relative="1" as="geometry" />
        </mxCell>
        <mxCell id="DDxuR43p7MorcLA8TKOA-15" value="Yes" style="edgeLabel;html=1;align=center;verticalAlign=middle;resizable=0;points=[];" vertex="1" connectable="0" parent="DDxuR43p7MorcLA8TKOA-14">
          <mxGeometry x="-0.0732" y="-3" relative="1" as="geometry">
            <mxPoint x="2" as="offset" />
          </mxGeometry>
        </mxCell>
        <mxCell id="DDxuR43p7MorcLA8TKOA-16" value="startArray[index]&amp;lt;4" style="rhombus;whiteSpace=wrap;html=1;" vertex="1" parent="1">
          <mxGeometry x="30" y="1179" width="160" height="80" as="geometry" />
        </mxCell>
        <mxCell id="DDxuR43p7MorcLA8TKOA-33" style="edgeStyle=orthogonalEdgeStyle;rounded=0;orthogonalLoop=1;jettySize=auto;html=1;exitX=0.5;exitY=1;exitDx=0;exitDy=0;entryX=0.5;entryY=0;entryDx=0;entryDy=0;" edge="1" parent="1" source="DDxuR43p7MorcLA8TKOA-18" target="DDxuR43p7MorcLA8TKOA-20">
          <mxGeometry relative="1" as="geometry" />
        </mxCell>
        <mxCell id="DDxuR43p7MorcLA8TKOA-18" value="endArray[endIndex]=startArray[index],&lt;br&gt;endIndex=endIndex+1" style="rounded=0;whiteSpace=wrap;html=1;" vertex="1" parent="1">
          <mxGeometry x="20" y="1300" width="240" height="60" as="geometry" />
        </mxCell>
        <mxCell id="DDxuR43p7MorcLA8TKOA-19" style="edgeStyle=orthogonalEdgeStyle;rounded=0;orthogonalLoop=1;jettySize=auto;html=1;exitX=0;exitY=0.5;exitDx=0;exitDy=0;entryX=0;entryY=0.5;entryDx=0;entryDy=0;" edge="1" parent="1" source="DDxuR43p7MorcLA8TKOA-20" target="DDxuR43p7MorcLA8TKOA-11">
          <mxGeometry relative="1" as="geometry">
            <Array as="points">
              <mxPoint y="1420" />
              <mxPoint y="1100" />
            </Array>
          </mxGeometry>
        </mxCell>
        <mxCell id="DDxuR43p7MorcLA8TKOA-20" value="index=index+1" style="rounded=0;whiteSpace=wrap;html=1;" vertex="1" parent="1">
          <mxGeometry x="70" y="1390" width="120" height="60" as="geometry" />
        </mxCell>
        <mxCell id="DDxuR43p7MorcLA8TKOA-21" style="edgeStyle=orthogonalEdgeStyle;rounded=0;orthogonalLoop=1;jettySize=auto;html=1;exitX=0.5;exitY=1;exitDx=0;exitDy=0;entryX=0.5;entryY=0;entryDx=0;entryDy=0;" edge="1" parent="1" source="DDxuR43p7MorcLA8TKOA-22" target="DDxuR43p7MorcLA8TKOA-11">
          <mxGeometry relative="1" as="geometry" />
        </mxCell>
        <mxCell id="DDxuR43p7MorcLA8TKOA-22" value="endArray[ ],&lt;br style=&quot;border-color: var(--border-color);&quot;&gt;index=0,&lt;br&gt;endIndex=0" style="rounded=0;whiteSpace=wrap;html=1;" vertex="1" parent="1">
          <mxGeometry x="30" y="960" width="160" height="60" as="geometry" />
        </mxCell>
        <mxCell id="DDxuR43p7MorcLA8TKOA-25" style="edgeStyle=orthogonalEdgeStyle;rounded=0;orthogonalLoop=1;jettySize=auto;html=1;exitX=0.5;exitY=1;exitDx=0;exitDy=0;" edge="1" parent="1" source="DDxuR43p7MorcLA8TKOA-23" target="DDxuR43p7MorcLA8TKOA-22">
          <mxGeometry relative="1" as="geometry" />
        </mxCell>
        <mxCell id="DDxuR43p7MorcLA8TKOA-26" value="Yes" style="edgeLabel;html=1;align=center;verticalAlign=middle;resizable=0;points=[];" vertex="1" connectable="0" parent="DDxuR43p7MorcLA8TKOA-25">
          <mxGeometry x="-0.05" relative="1" as="geometry">
            <mxPoint as="offset" />
          </mxGeometry>
        </mxCell>
        <mxCell id="DDxuR43p7MorcLA8TKOA-28" style="edgeStyle=orthogonalEdgeStyle;rounded=0;orthogonalLoop=1;jettySize=auto;html=1;exitX=1;exitY=0.5;exitDx=0;exitDy=0;entryX=0.463;entryY=0.013;entryDx=0;entryDy=0;entryPerimeter=0;" edge="1" parent="1" source="DDxuR43p7MorcLA8TKOA-23" target="DDxuR43p7MorcLA8TKOA-27">
          <mxGeometry relative="1" as="geometry" />
        </mxCell>
        <mxCell id="DDxuR43p7MorcLA8TKOA-29" value="No" style="edgeLabel;html=1;align=center;verticalAlign=middle;resizable=0;points=[];" vertex="1" connectable="0" parent="DDxuR43p7MorcLA8TKOA-28">
          <mxGeometry x="0.0154" y="-2" relative="1" as="geometry">
            <mxPoint x="-126" y="-51" as="offset" />
          </mxGeometry>
        </mxCell>
        <mxCell id="DDxuR43p7MorcLA8TKOA-23" value="endSize&amp;gt;0" style="rhombus;whiteSpace=wrap;html=1;" vertex="1" parent="1">
          <mxGeometry x="30" y="840" width="160" height="80" as="geometry" />
        </mxCell>
        <mxCell id="DDxuR43p7MorcLA8TKOA-27" value="print(&lt;em style=&quot;box-sizing: border-box; color: rgb(31, 35, 40); font-family: -apple-system, BlinkMacSystemFont, &amp;quot;Segoe UI&amp;quot;, &amp;quot;Noto Sans&amp;quot;, Helvetica, Arial, sans-serif, &amp;quot;Apple Color Emoji&amp;quot;, &amp;quot;Segoe UI Emoji&amp;quot;; font-size: 16px; text-align: left; background-color: rgb(255, 255, 255);&quot;&gt;&quot;Не найдено элементов с длиной строки меньше 4 символов&quot;&lt;/em&gt;&amp;nbsp;)" style="shape=document;whiteSpace=wrap;html=1;boundedLbl=1;" vertex="1" parent="1">
          <mxGeometry x="340" y="1210" width="190" height="150" as="geometry" />
        </mxCell>
        <mxCell id="DDxuR43p7MorcLA8TKOA-32" style="edgeStyle=orthogonalEdgeStyle;rounded=0;orthogonalLoop=1;jettySize=auto;html=1;entryX=1;entryY=0.5;entryDx=0;entryDy=0;" edge="1" parent="1" source="DDxuR43p7MorcLA8TKOA-27" target="lZwE5tW1TfOiqQzU_jRC-28">
          <mxGeometry relative="1" as="geometry">
            <mxPoint x="340" y="1610" as="targetPoint" />
            <Array as="points">
              <mxPoint x="425" y="1680" />
            </Array>
          </mxGeometry>
        </mxCell>
      </root>
    </mxGraphModel>
  </diagram>
</mxfile>
